<svg xmlns="http://www.w3.org/2000/svg" viewBox="0 0 24 24" width="24" height="24" fill="none" stroke="white" stroke-width="2" stroke-linecap="round" stroke-linejoin="round"><path d="M12 4.5a4.5 4.5 0 0 1 4.5 4.5c0 1.5-.7 2.8-1.8 3.7-.6.5-1 1.2-1.2 2H10.5c-.2-.8-.6-1.5-1.2-2A4.5 4.5 0 0 1 12 4.5Z"/><line x1="10" y1="17" x2="14" y2="17"/><line x1="10.5" y1="19.5" x2="13.5" y2="19.5"/><line x1="4" y1="9" x2="2" y2="9"/><line x1="22" y1="9" x2="20" y2="9"/><line x1="6.3" y1="4.3" x2="4.9" y2="2.9"/><line x1="17.7" y1="4.3" x2="19.1" y2="2.9"/><circle cx="5" cy="17" r="1" fill="white" stroke="none"/><circle cx="19" cy="17" r="1" fill="white" stroke="none"/><line x1="6" y1="17" x2="8" y2="14"/><line x1="18" y1="17" x2="16" y2="14"/></svg>