<svg viewBox="0 0 24 24" fill="#ffffff" xmlns="http://www.w3.org/2000/svg">
  <path d="M12 2C6.48 2 2 6.48 2 12s4.48 10 10 10 10-4.48 10-10S17.52 2 12 2zm0 2c1.86 0 3.56.64 4.93 1.7L8.7 16.93A7.95 7.95 0 0 1 4 12c0-4.42 3.58-8 8-8zm0 16c-1.86 0-3.56-.64-4.93-1.7L15.3 7.07A7.95 7.95 0 0 1 20 12c0 4.42-3.58 8-8 8z"/>
  <circle cx="9" cy="10" r="1.5"/>
  <circle cx="15" cy="10" r="1.5"/>
  <path d="M8 14s1.5 2 4 2 4-2 4-2" stroke="#ffffff" stroke-width="1.2" fill="none" stroke-linecap="round"/>
</svg>
